<?xml version="1.0" encoding="UTF-8" standalone="no"?>
<!-- Created with Inkscape (http://www.inkscape.org/) -->

<svg
   width="55.289738mm"
   height="24.341343mm"
   viewBox="0 0 55.289738 24.341343"
   version="1.1"
   id="svg909"
   inkscape:version="1.2.2 (b0a8486541, 2022-12-01)"
   sodipodi:docname="logo_simple.svg"
   xmlns:inkscape="http://www.inkscape.org/namespaces/inkscape"
   xmlns:sodipodi="http://sodipodi.sourceforge.net/DTD/sodipodi-0.dtd"
   xmlns="http://www.w3.org/2000/svg"
   xmlns:svg="http://www.w3.org/2000/svg">
  <sodipodi:namedview
     id="namedview911"
     pagecolor="#505050"
     bordercolor="#ffffff"
     borderopacity="1"
     inkscape:showpageshadow="0"
     inkscape:pageopacity="0"
     inkscape:pagecheckerboard="1"
     inkscape:deskcolor="#505050"
     inkscape:document-units="mm"
     showgrid="false"
     inkscape:zoom="2.8079686"
     inkscape:cx="96.154922"
     inkscape:cy="30.092929"
     inkscape:window-width="1920"
     inkscape:window-height="1016"
     inkscape:window-x="0"
     inkscape:window-y="0"
     inkscape:window-maximized="1"
     inkscape:current-layer="layer1" />
  <defs
     id="defs906">
    <clipPath
       id="df5d8f6e20">
      <path
         d="M 109.29688,119.77734 H 232 v 69 H 109.29688 Z m 0,0"
         clip-rule="nonzero"
         id="path362" />
    </clipPath>
    <clipPath
       id="c75b67f15c">
      <path
         d="m 141,119.77734 h 29 V 173 h -29 z m 0,0"
         clip-rule="nonzero"
         id="path365" />
    </clipPath>
    <clipPath
       id="3005bc6780">
      <path
         d="M 109.29688,143 H 145 v 45.77734 h -35.70312 z m 0,0"
         clip-rule="nonzero"
         id="path368" />
    </clipPath>
    <clipPath
       id="baf59d21f0">
      <path
         d="m 188,160 h 24 v 28.77734 h -24 z m 0,0"
         clip-rule="nonzero"
         id="path371" />
    </clipPath>
    <clipPath
       id="822b641a36">
      <path
         d="m 216,128 h 31 v 60.77734 h -31 z m 0,0"
         clip-rule="nonzero"
         id="path374" />
    </clipPath>
    <clipPath
       id="b0ea069070">
      <path
         d="m 236,128 h 30.04687 v 60.77734 H 236 Z m 0,0"
         clip-rule="nonzero"
         id="path377" />
    </clipPath>
  </defs>
  <g
     inkscape:label="Calque 1"
     inkscape:groupmode="layer"
     id="layer1"
     transform="translate(-77.930821,-141.69431)">
    <g
       clip-path="url(#df5d8f6e20)"
       id="g384"
       transform="matrix(0.35277777,0,0,0.35277777,39.36918,99.439209)">
      <path
         fill="#f4f6fc"
         d="M 229.46094,188.77734 H 110.87891 c -0.86719,0 -1.57032,-0.70312 -1.57032,-1.5664 0,-0.71094 0.46875,-1.3086 1.11329,-1.50391 l 43.4414,-15.99219 12.08984,-48.74609 c 0.20313,-0.83984 1.05469,-1.35156 1.89454,-1.14453 0.47265,0.11719 0.84375,0.4375 1.03906,0.84375 l 14.86719,29.9414 c 0.35546,0.71875 0.10546,1.57813 -0.55079,2.00391 l -21.77734,15.70703 48.15625,-7.65234 7.17188,-6.6875 c 0.63281,-0.58985 1.625,-0.55469 2.21484,0.0781 0.16406,0.17578 0.27734,0.37891 0.34766,0.58985 l 11.61718,32.02734 c 0.29297,0.8125 -0.125,1.71094 -0.9414,2.00391 -0.17578,0.0625 -0.35547,0.0937 -0.53125,0.0937 z m -109.78906,-3.13672 h 107.55468 l -10.07031,-27.7539 -5.78516,5.39844 -0.004,-0.004 c -0.21875,0.20703 -0.5,0.35156 -0.82032,0.40234 l -54.95312,8.73047 z m 48.29296,-59.78124 -10.23437,41.26953 22.625,-16.32032 z m 0,0"
         fill-opacity="1"
         fill-rule="nonzero"
         id="path382" />
    </g>
    <path
       fill="#f4f6fc"
       d="m 116.61235,153.78352 c 0.21084,0.22049 0.2012,0.57051 -0.0193,0.77997 -0.22187,0.21084 -0.57051,0.20257 -0.78135,-0.0193 l -8.77673,-9.22045 -0.4203,5.28615 c -0.0124,0.15296 -0.0854,0.28663 -0.1943,0.37758 l -2.34129,2.22691 c -0.22186,0.21084 -0.57051,0.20257 -0.78135,-0.0193 -0.21083,-0.22048 -0.20119,-0.57051 0.0193,-0.77997 l 2.21038,-2.10151 0.5016,-6.31141 h 0.001 c 0.011,-0.13091 0.0675,-0.25907 0.1695,-0.35691 0.22186,-0.20947 0.57188,-0.2012 0.78135,0.0193 z m 0,0"
       fill-opacity="1"
       fill-rule="nonzero"
       id="path386"
       style="stroke-width:0.352778" />
    <g
       clip-path="url(#c75b67f15c)"
       id="g390"
       transform="matrix(0.35277777,0,0,0.35277777,39.36918,99.439209)">
      <path
         fill="#f4f6fc"
         d="m 166.36719,120.23438 c 0.61328,-0.60938 1.60547,-0.60547 2.21484,0.008 0.60938,0.60937 0.60938,1.60156 -0.004,2.21094 l -23.64843,23.42968 11.66406,24.33985 c 0.375,0.77734 0.043,1.71093 -0.73438,2.08203 -0.78125,0.375 -1.71484,0.043 -2.08593,-0.73438 l -12.10938,-25.26562 c -0.32812,-0.59766 -0.23828,-1.35938 0.26953,-1.86328 z m 0,0"
         fill-opacity="1"
         fill-rule="nonzero"
         id="path388" />
    </g>
    <g
       clip-path="url(#3005bc6780)"
       id="g394"
       transform="matrix(0.35277777,0,0,0.35277777,39.36918,99.439209)">
      <path
         fill="#f4f6fc"
         d="m 141.625,144.87109 c 0.37891,-0.77734 1.3125,-1.10156 2.09375,-0.72656 0.77734,0.375 1.10547,1.30859 0.73047,2.08984 l -12.0625,24.84766 c -0.10156,0.20703 -0.23828,0.38281 -0.40625,0.52344 l -20.09766,16.80469 c -0.66406,0.55468 -1.65234,0.46875 -2.20703,-0.19532 -0.55469,-0.66406 -0.46875,-1.65234 0.19531,-2.20703 l 19.84375,-16.59375 z m 0,0"
         fill-opacity="1"
         fill-rule="nonzero"
         id="path392" />
    </g>
    <g
       clip-path="url(#baf59d21f0)"
       id="g398"
       transform="matrix(0.35277777,0,0,0.35277777,39.36918,99.439209)">
      <path
         fill="#f4f6fc"
         d="m 209.07031,161.16797 c 0.53516,-0.67969 1.51953,-0.79688 2.19922,-0.26172 0.68359,0.53516 0.80078,1.51953 0.26563,2.19922 l -19.77344,25.07031 c -0.53516,0.68359 -1.51953,0.80078 -2.20313,0.26563 -0.67968,-0.53516 -0.79687,-1.51954 -0.26172,-2.19922 z m 0,0"
         fill-opacity="1"
         fill-rule="nonzero"
         id="path396" />
    </g>
    <g
       clip-path="url(#822b641a36)"
       id="g402"
       transform="matrix(0.35277777,0,0,0.35277777,39.36918,99.439209)">
      <path
         fill="#f4f6fc"
         d="m 218.89062,156.27344 c -0.63281,0.58593 -1.625,0.55078 -2.21484,-0.082 -0.58984,-0.63282 -0.55469,-1.6211 0.0781,-2.21094 l 26.66796,-24.75781 c 0.63282,-0.58985 1.625,-0.55079 2.21485,0.082 0.32422,0.34765 0.46094,0.80468 0.41015,1.24218 l -6.60156,56.8086 c -0.0977,0.83203 -0.83203,1.4414 -1.66406,1.38281 l -8.31641,0.0352 c -0.86328,0 -1.5664,-0.69532 -1.57031,-1.5586 -0.004,-0.86328 0.69531,-1.5664 1.55859,-1.57031 l 7.03516,-0.0273 5.95313,-51.21094 z m 0,0"
         fill-opacity="1"
         fill-rule="nonzero"
         id="path400" />
    </g>
    <g
       clip-path="url(#b0ea069070)"
       id="g406"
       transform="matrix(0.35277777,0,0,0.35277777,39.36918,99.439209)">
      <path
         fill="#f4f6fc"
         d="m 243.01172,130.89062 c -0.28906,-0.8164 0.14062,-1.71093 0.95703,-2 0.81641,-0.28515 1.71094,0.14063 2,0.95704 l 19.97656,56.48046 c 0.28906,0.81641 -0.14062,1.71094 -0.95703,1.9961 -0.20312,0.0703 -0.40625,0.0977 -0.60937,0.0859 l -26.47657,0.32812 c -0.86328,0.0117 -1.57031,-0.67969 -1.58203,-1.54297 -0.008,-0.86328 0.6836,-1.57031 1.54688,-1.58203 l 24.39453,-0.30078 z m 0,0"
         fill-opacity="1"
         fill-rule="nonzero"
         id="path404" />
    </g>
  </g>
</svg>
